# AST/ASF file generated using VICON BodyLanguage
# -----------------------------------------------
:version 1.10
:name VICON
:units
  mass 1.0
  length 0.45
  angle deg
:documentation
   .ast/.asf automatically generated from VICON data using
   VICON BodyBuilder and BodyLanguage model FoxedUp or BRILLIANT.MOD
:root
   order TX TY TZ RX RY RZ
   axis XYZ
   position 0 0 0  
   orientation 0 0 0 
:bonedata
  begin
     id 1 
     name lhipjoint
     direction 0.606768 -0.715223 0.346827 
     length 2.41543 
     axis 0 0 0  XYZ
  end
  begin
     id 2 
     name lfemur
     direction 0.34202 -0.939693 0  
     length 7.2778  
     axis 0 0 20  XYZ
    dof rx ry rz
    limits (-160.0 20.0)
           (-70.0 70.0)
           (-60.0 70.0)
  end
  begin
     id 3 
     name ltibia
     direction 0.34202 -0.939693 0   
     length 7.61811   
     axis 0 0 20   XYZ
    dof rx
    limits (-10.0 170.0)
  end
  begin
     id 4 
     name lfoot
     direction 0.0823924 -0.226371 0.97055   
     length 2.33618   
     axis -90 7.62852e-016 20   XYZ
    dof rx rz
    limits (-45.0 90.0)
           (-70.0 20.0)
  end
  begin
     id 5 
     name ltoes
     direction 1.53554e-011 -4.21934e-011 1   
     length 1.17015   
     axis -90 7.62852e-016 20   XYZ
    dof rx
    limits (-90.0 20.0)
  end
  begin
     id 6 
     name rhipjoint
     direction -0.6077 -0.714582 0.346516   
     length 2.4176  
     axis 0 0 0  XYZ 
  end
  begin
     id 7 
     name rfemur
     direction -0.34202 -0.939693 0   
     length 7.28127   
     axis 0 0 -20   XYZ
    dof rx ry rz
    limits (-160.0 20.0)
           (-70.0 70.0)
           (-70.0 60.0)
  end
  begin
     id 8 
     name rtibia
     direction -0.34202 -0.939693 0   
     length 7.77648   
     axis 0 0 -20   XYZ
    dof rx
    limits (-10.0 170.0)
 end
 begin
     id 9 
     name rfoot
     direction -0.0809463 -0.222398 0.97159   
     length 2.37533  
     axis -90 -7.62852e-016 -20   XYZ
    dof rx rz
    limits (-45.0 90.0)
           (-20.0 70.0)
  end
  begin
     id 10 
     name rtoes
     direction -1.53568e-011 -4.21714e-011 1   
     length 1.18972   
     axis -90 -7.62852e-016 -20   XYZ
    dof rx
    limits (-90.0 20.0)
  end
  begin
     id 11 
     name lowerback
     direction 0.010968 0.991932 -0.126297   
     length 2.21698   
     axis 0 0 0   XYZ
    dof rx ry rz
    limits (-20.0 45.0)
           (-30.0 30.0)
           (-30.0 30.0)
  end
  begin
     id 12 
     name upperback
     direction 0.0167007 0.997503 -0.0686276   
     length 2.22371   
     axis 0 0 0   XYZ
    dof rx ry rz
    limits (-20.0 45.0)
           (-30.0 30.0)
           (-30.0 30.0)
  end
  begin
     id 13 
     name thorax
     direction 0.0111721 0.999885 -0.0102878   
     length 2.25242   
     axis 0 0 0   XYZ
    dof rx ry rz
    limits (-20.0 45.0)
           (-30.0 30.0)
           (-30.0 30.0)
  end
  begin
     id 14 
     name lowerneck
     direction -0.0120265 0.990428 0.137508   
     length 1.57674   
     axis 0 0 0   XYZ
    dof rx ry rz
    limits (-20.0 45.0)
           (-30.0 30.0)
           (-30.0 30.0)
  end
  begin
     id 15 
     name upperneck
     direction 0.0175669 0.998907 0.0433089   
     length 1.5618   
     axis 0 0 0   XYZ
    dof rx ry rz
    limits (-20.0 45.0)
           (-30.0 30.0)
           (-30.0 30.0)
  end
  begin
     id 16
     name head
     direction 0.00754609 0.99997 0.00185367  
     length 1.60579  
     axis 0 0 0   XYZ
    dof rx ry rz
    limits (-20.0 45.0)
           (-30.0 30.0)
           (-30.0 30.0)
  end
  begin
     id 17 
     name lclavicle
     direction 0.885866 0.429166 -0.176231  
     length 3.44967  
     axis 0 0 0   XYZ
    dof ry rz
    limits (-20.0 10.0)
           (0.0 20.0)
  end
  begin
     id 18 
     name lhumerus
     direction 1 -4.48973e-011 -1.90255e-027   
     length 5.20607   
     axis 180 -30 -90   XYZ
    dof rx ry rz
    limits (-60.0 90.0)
           (-90.0 90.0)
           (-90.0 90.0)
  end
  begin
     id 19
     name lradius
     direction 1 -4.48956e-011 9.87925e-027   
     length 3.39961   
     axis 180 -30 -90   XYZ
    dof rx
    limits (-10.0 170.0)
  end
  begin
     id 20
     name lwrist
     direction 1 -4.48985e-011 1.73247e-026   
     length 1.6998   
     axis -9.60847e-015 90 90   XYZ
    dof ry
    limits (-180.0 0.0)
 end
  begin
     id 21 
     name lhand
     direction 1 -4.48798e-011 3.46119e-026   
     length 0.519693   
     axis -2.21073e-014 90 90   XYZ
    dof rx rz
    limits (-90.0 90.0)
           (-45.0 45.0)
  end
  begin
     id 22 
     name lfingers
     direction 1 -4.48938e-011 6.92797e-026   
     length 0.41899   
     axis -4.42155e-014 90 90   XYZ
    dof rx
    limits (0.0 90.0)
  end
  begin
     id 23
     name lthumb
     direction 0.707107 -6.34952e-011 0.707107   
     length 0.601588   
     axis -90 45 6.0103e-014   XYZ
    dof rx rz
    limits (-45.0 45.0)
           (-45.0 45.0)
  end
  begin
     id 24 
     name rclavicle
     direction -0.866736 0.456792 -0.200276   
     length 3.45032  
     axis 0 0 0   XYZ 
    dof ry rz
    limits (-10.0 20.0)
           (-20.0 0.0)
  end
  begin
     id 25 
     name rhumerus
     direction -1 -4.4897e-011 8.65094e-028  
     length 5.32214   
     axis 180 30 90   XYZ
    dof rx ry rz
    limits (-90.0 60.0)
           (-90.0 90.0)
           (-90.0 90.0)
  end
  begin
     id 26 
     name rradius
     direction -1 -4.48987e-011 1.08427e-026   
     length 3.51208   
     axis 180 30 90   XYZ
    dof rx
    limits (-10.0 170.0)
  end
  begin
     id 27 
     name rwrist
     direction -1 -4.48961e-011 1.73222e-026   
     length 1.75604   
     axis -9.60847e-015 -90 -90   XYZ
    dof ry
    limits (-180.0 0.0)
  end
  begin
     id 28
     name rhand
     direction -1 -4.48895e-011 3.46314e-026   
     length 0.586681   
     axis -2.21073e-014 -90 -90   XYZ
    dof rx rz
    limits (-90.0 90.0)
           (-45.0 45.0)
  end
  begin
     id 29
     name rfingers
     direction -1 -4.48968e-011 6.92916e-026   
     length 0.472997   
     axis -4.42155e-014 -90 -90   XYZ
    dof rx
    limits (0.0 90.0)
  end
  begin
     id 30
     name rthumb
     direction -0.707107 -6.34848e-011 0.707107   
     length 0.679133   
     axis -90 -45 -6.0103e-014   XYZ
    dof rx rz
    limits (-45.0 45.0)
           (-45.0 45.0)
  end
:hierarchy
  begin
    root lhipjoint rhipjoint lowerback
    lhipjoint lfemur
    lfemur ltibia
    ltibia lfoot
    lfoot ltoes
    rhipjoint rfemur
    rfemur rtibia
    rtibia rfoot
    rfoot rtoes
    lowerback upperback
    upperback thorax
    thorax lowerneck lclavicle rclavicle
    lowerneck upperneck
    upperneck head
    lclavicle lhumerus
    lhumerus lradius
    lradius lwrist
    lwrist lhand lthumb
    lhand lfingers
    rclavicle rhumerus
    rhumerus rradius
    rradius rwrist
    rwrist rhand rthumb
    rhand rfingers
  end

#!OML:ASF H:\Dans Jumps\Project 1\Capture day 1\Session 1\subject.ASF
:FULLY-SPECIFIED
:DEGREES
55
root 0.582755 17.5524 -13.8953 7.40325 -0.471532 -1.41371
lowerback -2.21579 -0.56198 0.010604
upperback 3.08194 -0.826144 1.87556
thorax 4.44875 -0.444871 1.88098
lowerneck -14.4922 0.380128 -2.16433
upperneck 29.462 0.960838 0.589525
head 12.0719 0.259825 0.733541
rclavicle -3.27995e-015 2.0276e-014
rhumerus -24.4483 -17.0211 -77.8837
rradius 24.6885
rwrist 32.4627
rhand -18.3031 -26.1574
rfingers 7.12502
rthumb 7.97779 -55.9868
lclavicle -3.27995e-015 2.0276e-014
lhumerus -22.4626 2.04178 85.1874
lradius 19.4668
lwrist 3.72116
lhand -23.8936 -3.63977
lfingers 7.12502
lthumb 2.58014 26.3244
rfemur -14.5025 -2.93177 20.7076
rtibia 21.7888
rfoot -14.084 -2.44294
rtoes 9.85738
lfemur -14.1288 8.9537 -19.6907
ltibia 19.4966
lfoot -11.4288 3.69798
ltoes -1.58659
56
root 0.582706 17.5524 -13.8953 7.40341 -0.476212 -1.4106
lowerback -2.21846 -0.562585 0.0121071
upperback 3.08663 -0.82714 1.8758
thorax 4.45517 -0.445368 1.88031
lowerneck -14.5167 0.377997 -2.18677
upperneck 29.4805 0.959618 0.606424
head 12.0842 0.258731 0.743866
rclavicle -1.0635e-014 2.22639e-014
rhumerus -24.4472 -17.0223 -77.8887
rradius 24.6888
rwrist 32.4635
rhand -18.3084 -26.165
rfingers 7.12502
rthumb 7.97269 -55.9947
lclavicle -1.0635e-014 2.22639e-014
lhumerus -22.4586 2.03879 85.1928
lradius 19.4671
lwrist 3.73296
lhand -23.8906 -3.63638
lfingers 7.12502
lthumb 2.58299 26.3277
rfemur -14.5044 -2.93486 20.704
rtibia 21.7923
rfoot -14.0869 -2.43485
rtoes 9.86006
lfemur -14.1257 8.95572 -19.6943
ltibia 19.4909
lfoot -11.4256 3.70125
ltoes -1.59102
57
root 0.582589 17.5525 -13.8953 7.40332 -0.480812 -1.40797
lowerback -2.21958 -0.563708 0.0129108
upperback 3.09089 -0.828824 1.87731
thorax 4.46032 -0.446247 1.8813
lowerneck -14.5375 0.377909 -2.20313
upperneck 29.4949 0.961775 0.616009
head 12.094 0.25892 0.750832
rclavicle 9.34288e-015 -1.51076e-014
rhumerus -24.4485 -17.0202 -77.8923
rradius 24.6921
rwrist 32.4639
rhand -18.3102 -26.1767
rfingers 7.12502
rthumb 7.97098 -56.0064
lclavicle 9.34288e-015 -1.51076e-014
lhumerus -22.4546 2.03508 85.2004
lradius 19.4714
lwrist 3.7501
lhand -23.8812 -3.59475
lfingers 7.12502
lthumb 2.59205 26.3692
rfemur -14.506 -2.93682 20.7012
rtibia 21.7951
rfoot -14.0894 -2.42684
rtoes 9.8767
lfemur -14.1224 8.95819 -19.6971
ltibia 19.4854
lfoot -11.4235 3.70428
ltoes -1.59347
58
root 0.582391 17.5526 -13.8954 7.40402 -0.485766 -1.40662
lowerback -2.22068 -0.565766 0.013422
upperback 3.09488 -0.831821 1.88076
thorax 4.46526 -0.447824 1.8844
lowerneck -14.559 0.377968 -2.23349
upperneck 29.5097 0.965354 0.634514
head 12.1041 0.259323 0.763784
rclavicle 5.76476e-015 -9.54166e-015
rhumerus -24.4473 -17.015 -77.8947
rradius 24.6934
rwrist 32.4644
rhand -18.3036 -26.1961
rfingers 7.12502
rthumb 7.97733 -56.0255
lclavicle 5.76476e-015 -9.54166e-015
lhumerus -22.4501 2.0358 85.2092
lradius 19.4772
lwrist 3.76675
lhand -23.8688 -3.54917
lfingers 7.12502
lthumb 2.60407 26.4147
rfemur -14.5084 -2.93712 20.7001
rtibia 21.7967
rfoot -14.0913 -2.42026
rtoes 9.8924
lfemur -14.1207 8.9612 -19.6983
ltibia 19.4809
lfoot -11.4215 3.70715
ltoes -1.59657
59
root 0.582141 17.5527 -13.8955 7.40576 -0.492554 -1.40583
lowerback -2.22213 -0.567472 0.0137579
upperback 3.09846 -0.834368 1.88502
thorax 4.46997 -0.449195 1.88845
lowerneck -14.5762 0.377686 -2.26626
upperneck 29.5209 0.96878 0.653674
head 12.1117 0.259513 0.77733
rclavicle -5.46658e-015 -2.10712e-014
rhumerus -24.445 -17.0118 -77.8949
rradius 24.6938
rwrist 32.4666
rhand -18.2947 -26.2159
rfingers 7.12502
rthumb 7.98588 -56.045
lclavicle -5.46658e-015 -2.10712e-014
lhumerus -22.4449 2.04055 85.2183
lradius 19.4816
lwrist 3.77681
lhand -23.8584 -3.51162
lfingers 7.12502
lthumb 2.61414 26.4521
rfemur -14.5118 -2.93555 20.6998
rtibia 21.7973
rfoot -14.0914 -2.41363
rtoes 9.90627
lfemur -14.1203 8.96522 -19.6992
ltibia 19.4772
lfoot -11.4195 3.7115
ltoes -1.60449
60
root 0.581861 17.5528 -13.8956 7.40786 -0.499533 -1.40585
lowerback -2.22385 -0.569527 0.0146747
upperback 3.103 -0.837462 1.89009
thorax 4.47586 -0.450844 1.89299
lowerneck -14.6011 0.375718 -2.312
upperneck 29.5372 0.970654 0.682673
head 12.123 0.258766 0.796684
rclavicle 4.96962e-015 -2.10712e-014
rhumerus -24.4383 -17.0134 -77.8935
rradius 24.6903
rwrist 32.4755
rhand -18.288 -26.2279
rfingers 7.12502
rthumb 7.99234 -56.0568
lclavicle 4.96962e-015 -2.10712e-014
lhumerus -22.4362 2.0517 85.2269
lradius 19.4841
lwrist 3.78061
lhand -23.8408 -3.4706
lfingers 7.12502
lthumb 2.63109 26.4929
rfemur -14.5156 -2.93173 20.7003
rtibia 21.7969
rfoot -14.0898 -2.40899
rtoes 9.91492
lfemur -14.1212 8.96841 -19.6992
ltibia 19.4749
lfoot -11.4172 3.71736
ltoes -1.61573
61
root 0.58156 17.5528 -13.8956 7.41038 -0.50686 -1.40453
lowerback -2.22574 -0.571485 0.0143559
upperback 3.10741 -0.840364 1.89497
thorax 4.48172 -0.452435 1.89802
lowerneck -14.6287 0.372431 -2.36496
upperneck 29.5564 0.970997 0.717443
head 12.1358 0.257242 0.819285
rclavicle -3.57812e-015 1.70955e-014
rhumerus -24.4291 -17.0198 -77.8901
rradius 24.6839
rwrist 32.4889
rhand -18.281 -26.2369
rfingers 7.12502
rthumb 7.99914 -56.0656
lclavicle -3.57812e-015 1.70955e-014
lhumerus -22.4278 2.06169 85.2361
lradius 19.4857
lwrist 3.78178
lhand -23.8265 -3.44307
lfingers 7.12502
lthumb 2.64489 26.5203
rfemur -14.5196 -2.92782 20.6995
rtibia 21.7958
rfoot -14.0876 -2.40425
rtoes 9.91979
lfemur -14.1226 8.97068 -19.7006
ltibia 19.4734
lfoot -11.4152 3.72387
ltoes -1.62878
62
root 0.581236 17.5528 -13.8956 7.41218 -0.513887 -1.40503
lowerback -2.2273 -0.572403 0.0173748
upperback 3.11255 -0.842009 1.89928
thorax 4.48805 -0.453282 1.90067
lowerneck -14.6483 0.37236 -2.39193
upperneck 29.5666 0.974854 0.731317
head 12.1437 0.257596 0.829929
rclavicle 6.65929e-015 8.34896e-015
rhumerus -24.4202 -17.0302 -77.886
rradius 24.677
rwrist 32.5004
rhand -18.279 -26.2427
rfingers 7.12502
rthumb 8.00104 -56.0712
lclavicle 6.65929e-015 8.34896e-015
lhumerus -22.4197 2.07102 85.2445
lradius 19.488
lwrist 3.77918
lhand -23.8122 -3.43489
lfingers 7.12502
lthumb 2.65878 26.5283
rfemur -14.5221 -2.92295 20.7007
rtibia 21.7938
rfoot -14.0853 -2.40033
rtoes 9.92046
lfemur -14.1232 8.9703 -19.6994
ltibia 19.4728
lfoot -11.4132 3.73264
ltoes -1.63615
63
root 0.580941 17.5528 -13.8956 7.41351 -0.521048 -1.40475
lowerback -2.22842 -0.572466 0.021609
upperback 3.11785 -0.842504 1.90216
thorax 4.49422 -0.45349 1.90123
lowerneck -14.6578 0.376204 -2.39135
upperneck 29.5666 0.983166 0.722763
head 12.1456 0.260241 0.827867
rclavicle -3.97569e-015 7.95139e-015
rhumerus -24.4139 -17.0406 -77.8823
rradius 24.6741
rwrist 32.5108
rhand -18.2751 -26.2477
rfingers 7.12502
rthumb 8.00485 -56.0761
lclavicle -3.97569e-015 7.95139e-015
lhumerus -22.4109 2.07478 85.2533
lradius 19.4915
lwrist 3.78118
lhand -23.803 -3.42905
lfingers 7.12502
lthumb 2.66757 26.534
rfemur -14.5232 -2.9203 20.7009
rtibia 21.7909
rfoot -14.0837 -2.39451
rtoes 9.9244
lfemur -14.1229 8.96762 -19.6989
ltibia 19.4727
lfoot -11.4121 3.74364
ltoes -1.64264
64
root 0.58062 17.5528 -13.8955 7.4146 -0.527163 -1.40557
lowerback -2.22906 -0.572359 0.0281995
upperback 3.12271 -0.842841 1.90448
thorax 4.4996 -0.453523 1.89991
lowerneck -14.6709 0.379686 -2.39091
upperneck 29.5705 0.990495 0.716266
head 12.1498 0.262654 0.826517
rclavicle 3.77691e-015 3.97569e-015
rhumerus -24.4088 -17.0553 -77.8782
rradius 24.67
rwrist 32.5239
rhand -18.2717 -26.2525
rfingers 7.12502
rthumb 8.00814 -56.0808
lclavicle 3.77691e-015 3.97569e-015
lhumerus -22.4038 2.07742 85.2613
lradius 19.4944
lwrist 3.78465
lhand -23.8018 -3.44255
lfingers 7.12502
lthumb 2.6688 26.5205
rfemur -14.5229 -2.91937 20.7026
rtibia 21.7864
rfoot -14.0817 -2.38798
rtoes 9.93238
lfemur -14.1229 8.96494 -19.697
ltibia 19.4738
lfoot -11.4112 3.75399
ltoes -1.65205
65
root 0.58025 17.5528 -13.8955 7.41596 -0.533626 -1.40719
lowerback -2.22866 -0.57169 0.0369711
upperback 3.12674 -0.842443 1.90554
thorax 4.50344 -0.453084 1.89611
lowerneck -14.6857 0.382536 -2.3932
upperneck 29.5765 0.996052 0.715246
head 12.1552 0.264654 0.827476
rclavicle 1.68967e-015 -6.75868e-015
rhumerus -24.4085 -17.069 -77.8754
rradius 24.6705
rwrist 32.5334
rhand -18.2734 -26.2493
rfingers 7.12502
rthumb 8.0065 -56.0776
lclavicle 1.68967e-015 -6.75868e-015
lhumerus -22.3974 2.08199 85.2669
lradius 19.4969
lwrist 3.78698
lhand -23.8014 -3.46201
lfingers 7.12502
lthumb 2.6692 26.501
rfemur -14.5224 -2.92036 20.7056
rtibia 21.7804
rfoot -14.0793 -2.37926
rtoes 9.94346
lfemur -14.1233 8.96255 -19.6938
ltibia 19.4757
lfoot -11.4115 3.76388
ltoes -1.65397
